HIERARCHY
ROOT Hips
{
	OFFSET 0.101329 88.952194 2.917683
	CHANNELS 6 Xposition Yposition Zposition Zrotation Yrotation Xrotation 
	JOINT Spine
	{
		OFFSET 0.000000 8.814246 -2.080107
		CHANNELS 3 Zrotation Yrotation Xrotation
		JOINT Spine1
		{
			OFFSET -0.000000 8.844141 0.000000
			CHANNELS 3 Zrotation Yrotation Xrotation
			JOINT Spine2
			{
				OFFSET -0.000000 11.682268 -0.000000
				CHANNELS 3 Zrotation Yrotation Xrotation
				JOINT Spine3
				{
					OFFSET -0.000000 11.746700 -0.000000
					CHANNELS 3 Zrotation Yrotation Xrotation
					JOINT Neck
					{
						OFFSET 0.000000 17.658264 0.000000
						CHANNELS 3 Zrotation Yrotation Xrotation
						JOINT Neck1
						{
							OFFSET 0.000000 5.101515 -0.000000
							CHANNELS 3 Zrotation Yrotation Xrotation
							JOINT Head
							{
								OFFSET -0.000000 5.101515 -0.000000
								CHANNELS 3 Zrotation Yrotation Xrotation
								JOINT HeadEnd
								{
									OFFSET -0.000000 11.655085 -0.000000
									CHANNELS 3 Zrotation Yrotation Xrotation
									End Site
									{
										OFFSET 0.000000 0.000000 0.000000
									}
								}
							}
						}
					}
					JOINT RightShoulder
					{
						OFFSET -2.625389 11.175210 0.000000
						CHANNELS 3 Zrotation Yrotation Xrotation
						JOINT RightArm
						{
							OFFSET -0.000000 10.434715 0.000000
							CHANNELS 3 Zrotation Yrotation Xrotation
							JOINT RightForeArm
							{
								OFFSET -0.000000 29.628420 0.000000
								CHANNELS 3 Zrotation Yrotation Xrotation
								JOINT RightHand
								{
									OFFSET 0.000000 22.857611 -0.000000
									CHANNELS 3 Zrotation Yrotation Xrotation
									JOINT RightHandThumb1
									{
										OFFSET -2.867323 3.959563 2.944291
										CHANNELS 3 Zrotation Yrotation Xrotation
										JOINT RightHandThumb2
										{
											OFFSET 0.000000 3.350399 0.000000
											CHANNELS 3 Zrotation Yrotation Xrotation
											JOINT RightHandThumb3
											{
												OFFSET -0.000000 3.756509 0.000000
												CHANNELS 3 Zrotation Yrotation Xrotation
												JOINT RightHandThumb4
												{
													OFFSET -0.000000 3.147345 -0.000000
													CHANNELS 3 Zrotation Yrotation Xrotation
													End Site
													{
														OFFSET 0.000000 0.000000 0.000000
													}
												}
											}
										}
									}
									JOINT RightHandIndex1
									{
										OFFSET -0.086752 10.030893 2.345280
										CHANNELS 3 Zrotation Yrotation Xrotation
										JOINT RightHandIndex2
										{
											OFFSET 0.000000 4.061090 0.000000
											CHANNELS 3 Zrotation Yrotation Xrotation
											JOINT RightHandIndex3
											{
												OFFSET -0.000000 3.248873 0.000000
												CHANNELS 3 Zrotation Yrotation Xrotation
												JOINT RightHandIndex4
												{
													OFFSET 0.000000 2.639709 -0.000000
													CHANNELS 3 Zrotation Yrotation Xrotation
													End Site
													{
														OFFSET 0.000000 0.000000 0.000000
													}
												}
											}
										}
									}
									JOINT RightHandMiddle1
									{
										OFFSET 0.104102 9.502952 0.006768
										CHANNELS 3 Zrotation Yrotation Xrotation
										JOINT RightHandMiddle2
										{
											OFFSET -0.000000 4.568727 -0.000000
											CHANNELS 3 Zrotation Yrotation Xrotation
											JOINT RightHandMiddle3
											{
												OFFSET 0.000000 3.654981 -0.000000
												CHANNELS 3 Zrotation Yrotation Xrotation
												JOINT RightHandMiddle4
												{
													OFFSET 0.000000 2.741236 -0.000000
													CHANNELS 3 Zrotation Yrotation Xrotation
													End Site
													{
														OFFSET 0.000000 0.000000 0.000000
													}
												}
											}
										}
									}
									JOINT RightHandRing1
									{
										OFFSET 0.086752 8.921708 -2.267442
										CHANNELS 3 Zrotation Yrotation Xrotation
										JOINT RightHandRing2
										{
											OFFSET 0.000000 4.061090 -0.000000
											CHANNELS 3 Zrotation Yrotation Xrotation
											JOINT RightHandRing3
											{
												OFFSET 0.000000 3.654981 -0.000000
												CHANNELS 3 Zrotation Yrotation Xrotation
												JOINT RightHandRing4
												{
													OFFSET -0.000000 2.741236 0.000000
													CHANNELS 3 Zrotation Yrotation Xrotation
													End Site
													{
														OFFSET 0.000000 0.000000 0.000000
													}
												}
											}
										}
									}
									JOINT RightHandPinky1
									{
										OFFSET -0.173504 7.976997 -4.467199
										CHANNELS 3 Zrotation Yrotation Xrotation
										JOINT RightHandPinky2
										{
											OFFSET -0.000000 3.350399 0.000000
											CHANNELS 3 Zrotation Yrotation Xrotation
											JOINT RightHandPinky3
											{
												OFFSET 0.000000 2.842763 -0.000000
												CHANNELS 3 Zrotation Yrotation Xrotation
												JOINT RightHandPinky4
												{
													OFFSET 0.000000 2.639709 -0.000000
													CHANNELS 3 Zrotation Yrotation Xrotation
													End Site
													{
														OFFSET 0.000000 0.000000 0.000000
													}
												}
											}
										}
									}
									JOINT RightForeArmEnd
									{
										OFFSET 0.000000 0.000000 0.000000
										CHANNELS 3 Zrotation Yrotation Xrotation
										End Site
										{
											OFFSET 0.000000 0.000000 0.000000
										}
									}
								}
								JOINT RightArmEnd
								{
									OFFSET 0.000000 0.000000 0.000000
									CHANNELS 3 Zrotation Yrotation Xrotation
									End Site
									{
										OFFSET 0.000000 0.000000 0.000000
									}
								}
							}
						}
					}
					JOINT LeftShoulder
					{
						OFFSET 2.625389 11.175210 0.000000
						CHANNELS 3 Zrotation Yrotation Xrotation
						JOINT LeftArm
						{
							OFFSET 0.000000 10.813635 0.000000
							CHANNELS 3 Zrotation Yrotation Xrotation
							JOINT LeftForeArm
							{
								OFFSET 0.000000 28.724781 0.000000
								CHANNELS 3 Zrotation Yrotation Xrotation
								JOINT LeftHand
								{
									OFFSET 0.644384 25.716167 -0.328871
									CHANNELS 3 Zrotation Yrotation Xrotation
									JOINT LeftHandThumb1
									{
										OFFSET 2.867323 3.959563 2.944291
										CHANNELS 3 Zrotation Yrotation Xrotation
										JOINT LeftHandThumb2
										{
											OFFSET -0.000000 3.350399 -0.000000
											CHANNELS 3 Zrotation Yrotation Xrotation
											JOINT LeftHandThumb3
											{
												OFFSET -0.000000 3.756509 -0.000000
												CHANNELS 3 Zrotation Yrotation Xrotation
												JOINT LeftHandThumb4
												{
													OFFSET -0.000000 3.100000 -0.000000
													CHANNELS 3 Zrotation Yrotation Xrotation
													End Site
													{
														OFFSET 0.000000 0.000000 0.000000
													}
												}
											}
										}
									}
									JOINT LeftHandIndex1
									{
										OFFSET 0.086752 10.030893 2.345280
										CHANNELS 3 Zrotation Yrotation Xrotation
										JOINT LeftHandIndex2
										{
											OFFSET 0.000000 4.061090 -0.000000
											CHANNELS 3 Zrotation Yrotation Xrotation
											JOINT LeftHandIndex3
											{
												OFFSET 0.000000 3.248873 0.000000
												CHANNELS 3 Zrotation Yrotation Xrotation
												JOINT LeftHandIndex4
												{
													OFFSET 0.000000 2.639709 -0.000000
													CHANNELS 3 Zrotation Yrotation Xrotation
													End Site
													{
														OFFSET 0.000000 0.000000 0.000000
													}
												}
											}
										}
									}
									JOINT LeftHandMiddle1
									{
										OFFSET -0.104102 9.502952 0.006768
										CHANNELS 3 Zrotation Yrotation Xrotation
										JOINT LeftHandMiddle2
										{
											OFFSET -0.000000 4.568727 -0.000000
											CHANNELS 3 Zrotation Yrotation Xrotation
											JOINT LeftHandMiddle3
											{
												OFFSET 0.000000 3.654981 -0.000000
												CHANNELS 3 Zrotation Yrotation Xrotation
												JOINT LeftHandMiddle4
												{
													OFFSET -0.000000 2.741236 -0.000000
													CHANNELS 3 Zrotation Yrotation Xrotation
													End Site
													{
														OFFSET 0.000000 0.000000 0.000000
													}
												}
											}
										}
									}
									JOINT LeftHandRing1
									{
										OFFSET -0.086752 8.921708 -2.267442
										CHANNELS 3 Zrotation Yrotation Xrotation
										JOINT LeftHandRing2
										{
											OFFSET 0.000000 4.061090 0.000000
											CHANNELS 3 Zrotation Yrotation Xrotation
											JOINT LeftHandRing3
											{
												OFFSET -0.000000 3.654981 0.000000
												CHANNELS 3 Zrotation Yrotation Xrotation
												JOINT LeftHandRing4
												{
													OFFSET -0.000000 2.741236 -0.000000
													CHANNELS 3 Zrotation Yrotation Xrotation
													End Site
													{
														OFFSET 0.000000 0.000000 0.000000
													}
												}
											}
										}
									}
									JOINT LeftHandPinky1
									{
										OFFSET 0.173504 7.976997 -4.467199
										CHANNELS 3 Zrotation Yrotation Xrotation
										JOINT LeftHandPinky2
										{
											OFFSET 0.000000 3.350399 0.000000
											CHANNELS 3 Zrotation Yrotation Xrotation
											JOINT LeftHandPinky3
											{
												OFFSET 0.000000 2.842763 0.000000
												CHANNELS 3 Zrotation Yrotation Xrotation
												JOINT LeftHandPinky4
												{
													OFFSET 0.000000 2.639709 0.000000
													CHANNELS 3 Zrotation Yrotation Xrotation
													End Site
													{
														OFFSET 0.000000 0.000000 0.000000
													}
												}
											}
										}
									}
									JOINT LeftForeArmEnd
									{
										OFFSET 0.000000 0.000000 0.000000
										CHANNELS 3 Zrotation Yrotation Xrotation
										End Site
										{
											OFFSET 0.000000 0.000000 0.000000
										}
									}
								}
								JOINT LeftArmEnd
								{
									OFFSET 0.000000 0.000000 0.000000
									CHANNELS 3 Zrotation Yrotation Xrotation
									End Site
									{
										OFFSET 0.000000 0.000000 0.000000
									}
								}
							}
						}
					}
				}
			}
		}
	}
	JOINT RightUpLeg
	{
		OFFSET -11.289943 0.000000 0.000000
		CHANNELS 3 Zrotation Yrotation Xrotation
		JOINT RightLeg
		{
			OFFSET -0.000000 -38.200325 -0.000000
			CHANNELS 3 Zrotation Yrotation Xrotation
			JOINT RightFoot
			{
				OFFSET 0.000000 -39.900856 0.000000
				CHANNELS 3 Zrotation Yrotation Xrotation
				JOINT RightToeBase
				{
					OFFSET -0.000000 -0.000000 15.261641
					CHANNELS 3 Zrotation Yrotation Xrotation
					JOINT RightToeBaseEnd
					{
						OFFSET 0.000000 0.000000 7.370709
						CHANNELS 3 Zrotation Yrotation Xrotation
						End Site
						{
							OFFSET 0.000000 0.000000 0.000000
						}
					}
				}
				JOINT RightLegEnd
				{
					OFFSET 0.000000 0.000000 0.000000
					CHANNELS 3 Zrotation Yrotation Xrotation
					End Site
					{
						OFFSET 0.000000 0.000000 0.000000
					}
				}
			}
			JOINT RightUpLegEnd
			{
				OFFSET 0.000000 0.000000 0.000000
				CHANNELS 3 Zrotation Yrotation Xrotation
				End Site
				{
					OFFSET 0.000000 0.000000 0.000000
				}
			}
		}
	}
	JOINT LeftUpLeg
	{
		OFFSET 11.315661 -0.000000 0.000000
		CHANNELS 3 Zrotation Yrotation Xrotation
		JOINT LeftLeg
		{
			OFFSET -0.000000 -38.200325 -0.000000
			CHANNELS 3 Zrotation Yrotation Xrotation
			JOINT LeftFoot
			{
				OFFSET 0.000000 -39.900856 0.000000
				CHANNELS 3 Zrotation Yrotation Xrotation
				JOINT LeftToeBase
				{
					OFFSET 0.000000 0.000000 15.261641
					CHANNELS 3 Zrotation Yrotation Xrotation
					JOINT LeftToeBaseEnd
					{
						OFFSET -0.000000 0.000000 7.539996
						CHANNELS 3 Zrotation Yrotation Xrotation
						End Site
						{
							OFFSET 0.000000 0.000000 0.000000
						}
					}
				}
				JOINT LeftLegEnd
				{
					OFFSET 0.000000 0.000000 0.000000
					CHANNELS 3 Zrotation Yrotation Xrotation
					End Site
					{
						OFFSET 0.000000 0.000000 0.000000
					}
				}
			}
			JOINT LeftUpLegEnd
			{
				OFFSET 0.000000 0.000000 0.000000
				CHANNELS 3 Zrotation Yrotation Xrotation
				End Site
				{
					OFFSET 0.000000 0.000000 0.000000
				}
			}
		}
	}
}
MOTION
Frames: 4
Frame Time: 0.016667
0.101329 88.952194 2.917683 -1.132711 -0.147069 -7.396804 2.090525 -0.400127 6.802540 -0.393571 -0.072774 2.416043 0.285164 -2.395693 2.611049 -0.478071 -0.783388 0.733877 1.656472 -0.173919 2.796704 0.637943 1.300678 -4.028639 -0.009431 -0.676668 -17.136953 0.000000 0.000000 0.000000 89.881905 0.018270 10.547983 69.458412 -40.200333 -3.018608 -1.460558 16.214289 102.423599 18.702307 25.145042 8.829534 27.380514 -1.348317 33.808323 0.000000 0.000000 -66.239990 0.000000 0.000000 -45.999992 0.000000 0.000000 0.000000 98.017868 0.000000 1.649274 68.612511 0.000000 0.000000 68.612511 0.000000 0.000000 0.000000 0.000000 0.000000 93.829926 -0.000000 6.090074 65.680939 0.000000 0.000000 65.680939 0.000000 0.000000 0.000000 0.000000 0.000000 93.395035 -0.000001 9.245642 65.376511 0.000000 0.000000 65.376511 0.000000 0.000000 0.000000 0.000000 0.000000 89.780899 0.000000 9.384584 62.846645 0.000000 0.000000 62.846645 0.000000 0.000000 0.000000 0.000000 0.000000 0.000000 0.000000 0.000000 0.000000 0.000000 0.000000 -89.565681 -0.070974 7.113561 -76.167488 36.854172 -16.245987 0.855744 -13.332052 106.601425 -16.287069 -31.919249 10.827449 -27.084862 1.386132 33.888203 0.000000 0.000000 -65.519997 0.000000 0.000000 -45.499996 0.000000 0.000000 0.000000 -91.774986 -0.000000 -1.304593 -64.242485 0.000000 0.000000 -64.242485 0.000000 0.000000 0.000000 0.000000 0.000000 -75.440681 0.000000 -1.009586 -52.808468 0.000000 0.000000 -52.808468 0.000000 0.000000 0.000000 0.000000 0.000000 -47.806202 0.000000 4.830015 -33.464344 0.000000 0.000000 -33.464344 0.000000 0.000000 0.000000 0.000000 0.000000 -29.838028 0.000000 1.753092 -20.886618 0.000000 0.000000 -20.886618 0.000000 0.000000 0.000000 0.000000 0.000000 0.000000 0.000000 0.000000 0.000000 0.000000 0.000000 -5.410686 -14.241936 7.244928 -0.109278 -1.318839 4.842473 2.057472 -8.352993 24.629242 -0.963072 1.772247 -21.661638 0.000000 0.000000 0.000000 0.000000 0.000000 0.000000 0.000000 0.000000 0.000000 6.891490 -6.733429 3.950771 0.223430 1.452204 8.623794 -3.341887 3.981394 20.097816 0.777939 -1.470225 -23.646471 0.000000 0.000000 0.000000 0.000000 0.000000 0.000000 0.000000 0.000000 0.000000 
0.327571 88.934692 3.072210 -1.050854 -0.599407 -8.881844 1.622226 -0.067498 6.559806 1.086169 -0.327828 4.390584 -0.728513 -0.526943 2.712933 -0.783522 -0.446444 2.850222 3.002595 -0.513930 1.535347 -0.099895 0.256859 -5.272856 -0.274361 -0.747188 -17.434584 0.000000 0.000000 0.000000 88.405922 0.348160 9.212881 67.856621 -41.362492 1.182839 -1.081641 16.974211 100.491081 16.233471 25.366753 10.717956 26.286451 -1.488535 33.831341 -0.000007 0.000031 -64.361244 -0.000006 0.000039 -44.760056 0.000006 -0.000006 -0.000037 92.752464 -0.113850 -1.204870 62.896244 1.546913 -1.901896 62.941807 1.563197 -1.644221 -0.000004 0.000012 -0.000035 90.667404 0.000588 3.351022 62.042313 0.588285 -0.850532 62.009312 0.530372 -0.691000 -0.000001 -0.000098 -0.000003 90.228195 -0.064462 8.367328 63.343021 -1.178520 1.067033 63.388912 -0.776481 0.835187 -0.000008 -0.000419 -0.000018 82.163521 0.111455 11.791344 59.486443 -3.465903 3.322766 59.828957 -2.926879 2.663891 0.000035 0.000004 0.000066 0.000000 0.000000 0.000000 0.000000 0.000000 0.000000 -87.003761 0.308628 5.661319 -73.957214 33.845791 -11.083040 1.356680 -8.696603 103.777428 -16.512272 -35.165512 16.464563 -24.794613 2.171427 33.831974 0.000011 0.000018 -58.032742 -0.000015 -0.000014 -40.968861 -0.000060 0.000006 0.000516 -71.263496 -0.060685 -4.389261 -50.403679 0.626546 0.608728 -50.528244 0.656670 0.476120 0.000043 -0.000384 0.000034 -65.692734 0.019225 -2.118108 -46.467625 0.206793 0.312390 -46.246140 0.181031 0.237852 -0.000410 -0.000033 0.000149 -50.831726 0.019675 -1.996462 -35.138630 -0.396517 -0.256637 -35.200470 -0.310799 -0.171113 0.000034 0.000011 0.000000 -29.716177 0.221292 1.697994 -20.591026 -1.259027 0.267922 -21.963793 -1.092034 0.237601 0.000991 0.000010 -0.000031 0.000000 0.000000 0.000000 0.000000 0.000000 0.000000 -7.118745 -12.457680 9.676208 -0.155819 -0.943914 5.712504 2.518280 -9.307755 22.997488 -0.976090 1.245381 -20.222631 0.000000 0.000000 0.000000 0.000000 0.000000 0.000000 0.000000 0.000000 0.000000 7.840582 -3.160562 6.987494 0.258331 0.977891 9.184835 -3.517546 -0.996517 19.548887 0.502473 -1.160417 -21.768976 0.000000 0.000000 0.000000 0.000000 0.000000 0.000000 0.000000 0.000000 0.000000 
0.369743 88.925667 3.089058 -0.994603 -0.810236 -8.981480 1.591011 -0.023865 6.611197 1.107315 -0.309206 4.166380 -0.829128 -0.470097 3.315279 -0.788298 -0.407636 3.003275 2.876555 -0.613928 1.935770 -0.085360 0.030623 -5.002628 -0.234167 -0.791158 -17.511806 0.000000 0.000000 0.000000 88.209549 0.376404 9.560874 67.660263 -40.450298 1.558308 -1.134759 16.325775 101.807648 15.128798 26.401266 11.312734 26.434826 -1.518740 33.717793 -0.000019 0.000034 -64.628471 0.000002 0.000033 -45.017502 0.000012 -0.000004 -0.000040 92.474319 -0.129121 -1.700491 62.945866 1.560111 -2.024452 62.959675 1.576548 -1.757018 -0.000001 0.000019 -0.000020 90.560318 -0.012352 2.895952 62.148235 0.592487 -0.899010 62.114544 0.535674 -0.732015 -0.000004 -0.000109 -0.000007 90.430801 -0.056787 7.890619 63.564140 -1.184923 1.114078 63.604870 -0.778145 0.878130 -0.000014 -0.000210 -0.000020 82.636040 0.097725 11.595105 59.850601 -3.453777 3.426419 60.177979 -2.915222 2.763979 -0.000077 0.000005 0.000059 0.000000 0.000000 0.000000 0.000000 0.000000 0.000000 -86.536484 0.321842 5.740244 -73.868950 33.329247 -10.795815 1.303748 -8.918806 104.312698 -16.552395 -33.723660 15.081514 -24.318363 2.147301 34.082203 0.000020 0.000008 -57.034904 -0.000079 -0.000012 -40.232269 -0.000235 0.000019 0.000532 -69.781296 -0.074006 -4.666734 -48.936245 0.607183 0.559255 -49.107761 0.637237 0.445608 0.000043 -0.000590 0.000037 -64.252815 0.009823 -2.616117 -45.103077 0.198081 0.296779 -44.887341 0.174911 0.228746 -0.000094 -0.000035 0.000141 -49.980366 0.032458 -2.629040 -34.433483 -0.379335 -0.230675 -34.467785 -0.298940 -0.153839 -0.000107 0.000014 0.000008 -30.462496 0.206499 0.819920 -20.994919 -1.208224 0.346087 -22.366341 -1.044751 0.266448 0.000996 0.000011 -0.000035 0.000000 0.000000 0.000000 0.000000 0.000000 0.000000 -7.149390 -12.207044 9.507353 -0.161159 -0.955402 5.605159 2.360525 -8.520679 22.921574 -0.992147 1.263972 -19.965967 0.000000 0.000000 0.000000 0.000000 0.000000 0.000000 0.000000 0.000000 0.000000 7.771477 -3.008302 7.232753 0.247849 0.937253 9.026071 -3.435359 -0.463992 19.355469 0.533157 -1.147293 -21.687004 0.000000 0.000000 0.000000 0.000000 0.000000 0.000000 0.000000 0.000000 0.000000 
0.393593 88.936836 3.089808 -0.986256 -0.987284 -9.088574 1.551991 -0.011152 6.636524 1.088260 -0.287894 4.080664 -0.903369 -0.319225 3.720542 -0.847906 -0.344673 3.276502 2.797854 -0.721587 2.334815 -0.152231 -0.233346 -4.819649 -0.176532 -0.768529 -17.751366 0.000000 0.000000 0.000000 87.982079 0.371095 9.794367 67.260399 -39.719398 1.949160 -1.116197 15.897102 102.972122 14.854692 27.441452 11.923121 26.459435 -1.545679 33.672997 -0.000021 0.000032 -64.630707 -0.000000 0.000035 -45.055584 0.000012 -0.000005 -0.000037 91.945457 -0.138757 -1.927649 62.738705 1.567276 -2.096047 62.725292 1.585860 -1.822232 -0.000003 0.000020 -0.000018 90.189667 -0.020647 2.638022 62.013443 0.594848 -0.926550 61.971237 0.537574 -0.754577 -0.000002 -0.000124 -0.000006 90.364319 -0.052078 7.559530 63.569366 -1.189498 1.140215 63.598934 -0.778331 0.902205 -0.000012 -0.000219 -0.000018 82.898277 0.088854 11.361241 60.027374 -3.443772 3.500389 60.336945 -2.906021 2.828066 -0.000098 0.000004 0.000050 0.000000 0.000000 0.000000 0.000000 0.000000 0.000000 -86.118340 0.385120 5.732722 -73.596581 33.184097 -10.593867 1.279377 -8.693082 104.843597 -16.649551 -32.748318 14.713968 -23.771465 2.121251 34.364876 0.000020 0.000008 -55.869850 -0.000112 -0.000012 -39.380497 -0.000266 0.000015 0.000394 -68.097397 -0.081619 -4.928304 -47.384266 0.590602 0.483534 -47.578922 0.620252 0.387295 0.000041 -0.000664 0.000037 -62.628834 0.003257 -3.050447 -43.670593 0.190412 0.269243 -43.471722 0.169280 0.209079 -0.000312 -0.000035 0.000140 -49.037991 0.040641 -3.135465 -33.675766 -0.366257 -0.193279 -33.705509 -0.287978 -0.125116 -0.000043 0.000015 0.000009 -31.084776 0.197956 0.152959 -21.271635 -1.167640 0.445159 -22.627245 -1.007865 0.315819 0.000960 0.000009 -0.000035 0.000000 0.000000 0.000000 0.000000 0.000000 0.000000 -7.082496 -11.880167 9.374007 -0.163248 -0.967095 5.635386 2.191244 -7.963907 22.875738 -0.969769 1.269294 -19.838228 0.000000 0.000000 0.000000 0.000000 0.000000 0.000000 0.000000 0.000000 0.000000 7.809737 -2.883571 7.423464 0.238103 0.897684 8.996696 -3.408660 0.107619 19.295958 0.564120 -1.130852 -21.717896 0.000000 0.000000 0.000000 0.000000 0.000000 0.000000 0.000000 0.000000 0.000000 
